# xmcd
#
# Track frame offsets: 
#        150
#        18247
#        39162
#        62511
#        79002
#        98133
#        112942
#        129297
#        147436
#        155596
#        179736
#        197795
#        214816
#
# Disc length: 3089 seconds
#
# Revision: 0
# Processed by: cddbd v1.5.2PL0 Copyright (c) Steve Scherf et al.
# Submitted via: ExactAudioCopy v0.95b4
#
DISCID=ab0c0f0d
DTITLE=Alicia Keys - Miss Keys
DYEAR=2008
DGENRE=R&B
TTITLE0=Karma (Remix) ft. Big Pun
TTITLE1=Streets of New York ft. Nas, Rakim
TTITLE2=You Don't Know My Name (Remix) ft. Reakwon, Ice Water
TTITLE3=Brotha (Remix) ft. Angie Stone, Eve
TTITLE4=Fallin (Remix) ft. Busta Rhymes, Rampage
TTITLE5=Juicest
TTITLE6=Want It All (Kanye West Remix)
TTITLE7=Woman's Worth (Remix)
TTITLE8=Killing Me Softly
TTITLE9=The Life
TTITLE10=Dah Dee Dah
TTITLE11=So Simple
TTITLE12=Loving You
EXTD=
EXTT0=
EXTT1=
EXTT2=
EXTT3=
EXTT4=
EXTT5=
EXTT6=
EXTT7=
EXTT8=
EXTT9=
EXTT10=
EXTT11=
EXTT12=
PLAYORDER=
